<svg aria-hidden="true" style="position: absolute; width: 0; height: 0; overflow: hidden;" version="1.1" xmlns="http://www.w3.org/2000/svg" xmlns:xlink="http://www.w3.org/1999/xlink">
<defs>
<symbol id="icon-check" viewBox="0 0 43 32">
<path fill="#fbfbfb" style="fill: var(--color1, #fbfbfb)" d="M5.333 9.6l-5.333 5.333 16 16 26.667-26.667-5.333-5.333-21.333 21.333-10.667-10.667z"></path>
</symbol>
<symbol id="icon-online" viewBox="0 0 32 32">
<path fill="#fbfbfb" style="fill: var(--color1, #fbfbfb)" d="M32 16c0 8.837-7.163 16-16 16s-16-7.163-16-16c0-8.837 7.163-16 16-16s16 7.163 16 16z"></path>
<path fill="#38cd3e" style="fill: var(--color2, #38cd3e)" d="M26.667 16c0 5.891-4.776 10.667-10.667 10.667s-10.667-4.776-10.667-10.667c0-5.891 4.776-10.667 10.667-10.667s10.667 4.776 10.667 10.667z"></path>
</symbol>
<symbol id="icon-Arrow-up" viewBox="0 0 177 200">
<path fill="#fbfbfb" style="fill: var(--color1, #fbfbfb)" d="M157.725 19.684c-0.904-6.434-6.853-10.917-13.287-10.013l-104.852 14.736c-6.434 0.904-10.917 6.853-10.013 13.287s6.853 10.917 13.288 10.013l93.202-13.099 13.098 93.202c0.905 6.434 6.854 10.916 13.288 10.013 6.434-0.905 10.916-6.853 10.013-13.288l-14.737-104.851zM28.027 197.525l127.443-169.123-18.792-14.16-127.443 169.122 18.791 14.161z"></path>
</symbol>
<symbol id="icon-mdi_user" viewBox="0 0 32 32">
<path d="M16 5.333c1.415 0 2.771 0.562 3.771 1.562s1.562 2.357 1.562 3.771-0.562 2.771-1.562 3.771c-1 1-2.357 1.562-3.771 1.562s-2.771-0.562-3.771-1.562c-1-1-1.562-2.357-1.562-3.771s0.562-2.771 1.562-3.771c1-1 2.357-1.562 3.771-1.562zM16 18.667c5.893 0 10.667 2.387 10.667 5.333v2.667h-21.333v-2.667c0-2.947 4.773-5.333 10.667-5.333z"></path>
</symbol>
<symbol id="icon-heart" viewBox="0 0 32 32">
<path stroke-linejoin="round" stroke-linecap="butt" stroke-miterlimit="4" stroke-width="2.4615" d="M25.403 4.554c-0.898-0.369-1.846-0.566-2.806-0.566s-1.92 0.197-2.806 0.566c-0.898 0.369-1.698 0.911-2.388 1.588l-1.403 1.415-1.415-1.415c-1.378-1.378-3.249-2.154-5.194-2.154s-3.803 0.775-5.182 2.154c-1.378 1.378-2.154 3.237-2.154 5.182s0.775 3.815 2.154 5.194l1.415 1.415 10.375 10.363 11.778-11.778c0.689-0.689 1.231-1.489 1.588-2.388 0.369-0.886 0.566-1.834 0.566-2.806 0-0.96-0.197-1.908-0.566-2.806-0.357-0.886-0.898-1.698-1.588-2.375-0.677-0.677-1.489-1.218-2.375-1.588z"></path>
</symbol>
<symbol id="icon-clock" viewBox="0 0 200 200">
<path stroke-linejoin="round" stroke-linecap="round" stroke-miterlimit="4" stroke-width="15" d="M100 183.333c46.024 0 83.333-37.31 83.333-83.333s-37.309-83.333-83.333-83.333c-46.024 0-83.333 37.31-83.333 83.333s37.31 83.333 83.333 83.333z"></path>
<path stroke-linejoin="round" stroke-linecap="round" stroke-miterlimit="4" stroke-width="15" d="M100 50v50l33.333 16.667"></path>
</symbol>
<symbol id="icon-chevron-down" viewBox="0 0 200 200">
<path fill="none" stroke="#fbfbfb" style="stroke: var(--color1, #fbfbfb)" stroke-linejoin="round" stroke-linecap="round" stroke-miterlimit="4" stroke-width="20" d="M50 75l50 50 50-50"></path>
</symbol>
<symbol id="icon-eye" viewBox="0 0 24 24">
<path d="M0.106 11.553c-0.136 0.274-0.146 0.603 0 0.894 0 0 0.396 0.789 1.12 1.843 0.451 0.656 1.038 1.432 1.757 2.218 0.894 0.979 2.004 1.987 3.319 2.8 1.595 0.986 3.506 1.692 5.698 1.692s4.103-0.706 5.698-1.692c1.315-0.813 2.425-1.821 3.319-2.8 0.718-0.786 1.306-1.562 1.757-2.218 0.724-1.054 1.12-1.843 1.12-1.843 0.136-0.274 0.146-0.603 0-0.894 0 0-0.396-0.789-1.12-1.843-0.451-0.656-1.038-1.432-1.757-2.218-0.894-0.979-2.004-1.987-3.319-2.8-1.595-0.986-3.506-1.692-5.698-1.692s-4.103 0.706-5.698 1.692c-1.315 0.813-2.425 1.821-3.319 2.8-0.719 0.786-1.306 1.561-1.757 2.218-0.724 1.054-1.12 1.843-1.12 1.843zM2.14 12c0.163-0.281 0.407-0.681 0.734-1.158 0.41-0.596 0.94-1.296 1.585-2.001 0.805-0.881 1.775-1.756 2.894-2.448 1.35-0.834 2.901-1.393 4.647-1.393s3.297 0.559 4.646 1.393c1.119 0.692 2.089 1.567 2.894 2.448 0.644 0.705 1.175 1.405 1.585 2.001 0.328 0.477 0.572 0.876 0.734 1.158-0.163 0.281-0.407 0.681-0.734 1.158-0.41 0.596-0.94 1.296-1.585 2.001-0.805 0.881-1.775 1.756-2.894 2.448-1.349 0.834-2.9 1.393-4.646 1.393s-3.297-0.559-4.646-1.393c-1.119-0.692-2.089-1.567-2.894-2.448-0.644-0.705-1.175-1.405-1.585-2.001-0.328-0.477-0.572-0.877-0.735-1.158zM16 12c0-1.104-0.449-2.106-1.172-2.828s-1.724-1.172-2.828-1.172-2.106 0.449-2.828 1.172-1.172 1.724-1.172 2.828 0.449 2.106 1.172 2.828 1.724 1.172 2.828 1.172 2.106-0.449 2.828-1.172 1.172-1.724 1.172-2.828zM14 12c0 0.553-0.223 1.051-0.586 1.414s-0.861 0.586-1.414 0.586-1.051-0.223-1.414-0.586-0.586-0.861-0.586-1.414 0.223-1.051 0.586-1.414 0.861-0.586 1.414-0.586 1.051 0.223 1.414 0.586 0.586 0.861 0.586 1.414z"></path>
</symbol>
<symbol id="icon-eye-off" viewBox="0 0 24 24">
<path d="M10.128 5.214c0.651-0.152 1.296-0.221 1.86-0.214 1.758 0 3.309 0.559 4.658 1.393 1.119 0.692 2.089 1.567 2.894 2.448 0.644 0.705 1.175 1.405 1.585 2.001 0.327 0.475 0.57 0.874 0.733 1.155-0.546 0.953-1.16 1.821-1.778 2.542-0.359 0.419-0.311 1.051 0.108 1.41s1.051 0.311 1.41-0.108c0.818-0.954 1.611-2.112 2.283-3.37 0.148-0.279 0.163-0.618 0.013-0.919 0 0-0.396-0.789-1.12-1.843-0.451-0.656-1.038-1.432-1.757-2.218-0.894-0.979-2.004-1.987-3.319-2.8-1.595-0.985-3.506-1.691-5.686-1.691-0.734-0.009-1.54 0.079-2.34 0.266-0.538 0.126-0.872 0.664-0.746 1.202s0.664 0.872 1.202 0.746zM10.027 11.442l2.531 2.531c-0.182 0.061-0.372 0.094-0.563 0.101-0.513 0.018-1.030-0.159-1.434-0.536s-0.617-0.88-0.635-1.393c-0.008-0.238 0.025-0.476 0.101-0.704zM5.983 7.397l2.553 2.553c-0.434 0.691-0.636 1.484-0.608 2.266 0.036 1.022 0.463 2.033 1.271 2.785s1.846 1.107 2.868 1.071c0.692-0.024 1.379-0.228 1.984-0.608l2.322 2.322c-1.378 0.799-2.895 1.196-4.384 1.214-1.734 0-3.285-0.559-4.634-1.393-1.119-0.692-2.089-1.567-2.894-2.448-0.644-0.705-1.175-1.405-1.585-2.001-0.326-0.475-0.57-0.873-0.732-1.154 1.050-1.822 2.376-3.379 3.841-4.607zM0.293 1.707l4.271 4.271c-1.731 1.479-3.269 3.358-4.445 5.549-0.148 0.279-0.164 0.619-0.013 0.92 0 0 0.396 0.789 1.12 1.843 0.451 0.656 1.038 1.432 1.757 2.218 0.894 0.979 2.004 1.987 3.319 2.8 1.595 0.986 3.506 1.692 5.71 1.692 1.993-0.024 4.019-0.601 5.815-1.759l4.466 4.466c0.391 0.391 1.024 0.391 1.414 0s0.391-1.024 0-1.414l-8.876-8.876c-0.002-0.002-0.005-0.005-0.007-0.007l-4.209-4.21c-0.008-0.007-0.016-0.016-0.024-0.024l-8.884-8.883c-0.391-0.391-1.024-0.391-1.414 0s-0.391 1.024 0 1.414z"></path>
</symbol>
<symbol id="icon-Arrow-inline" viewBox="0 0 250 200">
<path fill="#fbfbfb" style="fill: var(--color1, #fbfbfb)" d="M246.474 106.722c4.795-4.966 4.657-12.879-0.309-17.675l-80.926-78.149c-4.965-4.796-12.879-4.657-17.675 0.309-4.795 4.966-4.657 12.879 0.309 17.675l71.934 69.466-69.465 71.934c-4.796 4.966-4.657 12.879 0.309 17.675 4.965 4.795 12.879 4.657 17.675-0.309l78.149-80.926zM12.734 114.463l224.966-3.927-0.436-24.996-224.966 3.927 0.436 24.996z"></path>
</symbol>
<symbol id="icon-map-pin" viewBox="0 0 200 200">
<path stroke-linejoin="round" stroke-linecap="round" stroke-miterlimit="4" stroke-width="18.75" d="M175 83.333c0 58.333-75 108.333-75 108.333s-75-50-75-108.333c0-19.891 7.902-38.968 21.967-53.033s33.142-21.967 53.033-21.967c19.891 0 38.968 7.902 53.032 21.967 14.066 14.065 21.968 33.142 21.968 53.033z"></path>
<path stroke-linejoin="round" stroke-linecap="round" stroke-miterlimit="4" stroke-width="18.75" d="M100 108.333c13.807 0 25-11.193 25-25s-11.193-25-25-25c-13.807 0-25 11.193-25 25s11.193 25 25 25z"></path>
</symbol>
<symbol id="icon-I" viewBox="0 0 53 200">
<path fill="#f03f3b" style="fill: var(--color2, #f03f3b)" d="M6.933 9.6h33.333v190.4h-33.333v-190.4z"></path>
</symbol>
<symbol id="icon-star" viewBox="0 0 213 200">
<path fill="#ffc531" style="fill: var(--color3, #ffc531); stroke: var(--color3, #ffc531)" stroke="#ffc531" stroke-linejoin="miter" stroke-linecap="butt" stroke-miterlimit="4" stroke-width="16" d="M82.67 62.627l23.997-45.483 23.997 45.483c2.122 4.022 5.991 6.833 10.471 7.608l50.673 8.768-35.841 36.878c-3.169 3.261-4.648 7.808-4 12.31l7.32 50.902-46.148-22.691c-4.081-2.008-8.862-2.007-12.943 0l-46.149 22.691 7.32-50.902c0.647-4.502-0.83-9.048-4-12.31l-35.842-36.878 50.673-8.768c4.481-0.775 8.349-3.586 10.471-7.608zM193.569 77.19v0zM51.779 180.207c0.001 0 0.001 0 0.002 0h-0.002z"></path>
</symbol>
<symbol id="icon-x" viewBox="0 0 32 32">
<path stroke-linejoin="round" stroke-linecap="round" stroke-miterlimit="4" stroke-width="2.5" d="M24 8l-16 16"></path>
<path stroke-linejoin="round" stroke-linecap="round" stroke-miterlimit="4" stroke-width="2.5" d="M8 8l16 16"></path>
</symbol>
</defs>
</svg>
